<?xml version="1.0" standalone="no"?>
<!DOCTYPE svg PUBLIC "-//W3C//DTD SVG 20010904//EN"
 "http://www.w3.org/TR/2001/REC-SVG-20010904/DTD/svg10.dtd">
<svg version="1.0" xmlns="http://www.w3.org/2000/svg"
 width="1024.000000pt" height="1024.000000pt" viewBox="0 0 1024.000000 1024.000000"
 preserveAspectRatio="xMidYMid meet">

<g transform="translate(0.000000,1024.000000) scale(0.100000,-0.100000)"
fill="#000000" stroke="none">
<path d="M2717 5988 c-292 -25 -571 -223 -702 -499 -123 -261 -107 -573 42
-828 86 -146 263 -296 427 -361 126 -51 201 -62 361 -57 122 4 152 8 235 35
231 76 407 229 514 447 67 134 86 207 93 350 18 374 -198 713 -545 855 -131
53 -265 71 -425 58z m208 -253 c125 -22 232 -80 330 -179 127 -127 185 -266
185 -441 0 -174 -62 -319 -189 -445 -125 -124 -262 -182 -436 -183 -112 -1
-178 14 -282 65 -150 73 -263 201 -320 365 -24 68 -27 93 -27 198 0 120 8 163
49 259 67 158 242 307 410 350 114 28 170 31 280 11z"/>
<path d="M2688 5624 c-93 -22 -176 -70 -248 -143 -107 -108 -150 -214 -150
-366 1 -153 45 -262 149 -366 216 -217 553 -210 759 16 93 101 136 214 135
355 0 146 -55 271 -163 374 -134 126 -307 173 -482 130z m227 -169 c151 -45
250 -183 250 -345 -1 -63 -6 -86 -31 -140 -37 -78 -99 -141 -174 -178 -48 -24
-67 -27 -150 -27 -83 0 -102 3 -151 28 -66 32 -142 109 -170 172 -61 139 -38
281 63 391 72 79 148 112 254 113 33 1 83 -6 109 -14z"/>
<path d="M4118 5724 c-5 -4 -8 -182 -8 -396 l0 -388 90 0 90 0 2 308 3 307 75
3 c97 4 137 -4 166 -33 26 -26 32 -81 14 -116 -14 -26 -62 -49 -103 -49 -49 0
-57 -14 -57 -100 l0 -76 83 -120 82 -119 103 -3 c84 -2 102 0 102 12 0 8 -38
70 -85 138 l-85 123 22 15 c94 63 138 138 138 238 0 108 -48 188 -139 230 -54
25 -65 27 -271 30 -118 2 -218 1 -222 -4z"/>
<path d="M4915 5717 c-3 -6 -4 -183 -3 -392 l3 -380 300 0 300 0 3 73 c3 70 2
72 -23 82 -15 6 -109 10 -211 10 l-184 0 0 75 0 75 168 0 c117 0 172 4 180 12
16 16 16 130 0 146 -8 8 -63 12 -180 12 l-168 0 0 65 0 65 194 0 c168 0 195 2
200 16 11 28 6 130 -6 142 -18 18 -567 17 -573 -1z"/>
<path d="M5673 5719 c-10 -10 -13 -100 -13 -383 0 -204 4 -377 9 -384 6 -11
50 -13 207 -10 225 3 261 13 338 86 69 66 76 92 76 303 0 179 -1 187 -26 237
-31 62 -80 105 -154 134 -48 19 -79 22 -240 26 -141 3 -188 0 -197 -9z m362
-173 c56 -24 65 -55 65 -222 l0 -146 -33 -33 c-26 -26 -44 -34 -88 -40 -29 -4
-70 -5 -89 -3 l-35 3 -3 228 -2 227 75 0 c43 0 90 -6 110 -14z"/>
<path d="M6457 5723 c-4 -3 -7 -181 -7 -395 l0 -388 89 0 c72 0 90 3 95 16 3
9 6 78 6 155 l0 139 158 0 c86 0 163 4 170 9 9 5 12 29 10 82 l-3 74 -167 3
-168 2 0 70 0 70 193 2 192 3 0 80 0 80 -281 3 c-154 1 -283 -1 -287 -5z"/>
<path d="M7152 5718 c-7 -7 -12 -39 -12 -73 0 -34 5 -66 12 -73 7 -7 31 -12
55 -12 l43 0 0 -229 0 -230 -52 -3 -53 -3 0 -75 0 -75 200 0 200 0 0 75 0 75
-52 3 -53 3 0 230 0 229 43 0 c24 0 48 5 55 12 7 7 12 39 12 73 0 34 -5 66
-12 73 -8 8 -66 12 -193 12 -127 0 -185 -4 -193 -12z"/>
<path d="M7654 5717 c-3 -8 -4 -45 -2 -83 l3 -69 107 -3 108 -3 2 -307 3 -307
90 0 90 0 3 308 2 307 104 0 c85 0 105 3 110 16 11 28 6 130 -6 142 -18 18
-607 17 -614 -1z"/>
<path d="M4083 4619 c-12 -6 -27 -25 -34 -41 -17 -42 11 -78 75 -94 57 -15 76
-29 76 -59 0 -38 -23 -48 -95 -42 -51 5 -65 3 -65 -7 0 -17 31 -26 93 -26 38
0 53 5 72 25 47 46 24 116 -42 131 -64 14 -78 21 -81 43 -2 12 2 29 8 37 14
16 63 19 90 4 21 -11 39 5 23 21 -14 14 -96 20 -120 8z"/>
<path d="M4585 4616 c-51 -22 -85 -71 -85 -122 0 -87 55 -144 140 -144 82 0
141 55 142 132 1 61 -25 106 -75 129 -49 22 -81 23 -122 5z m131 -50 c29 -29
34 -41 34 -81 0 -38 -5 -52 -29 -76 -36 -35 -89 -42 -139 -16 -52 25 -68 113
-31 161 45 57 115 62 165 12z"/>
<path d="M5340 4623 c-50 -19 -66 -77 -31 -112 11 -11 37 -23 58 -27 21 -4 46
-11 56 -16 20 -10 23 -58 5 -76 -14 -14 -92 -16 -118 -2 -13 7 -19 6 -24 -5
-8 -21 25 -35 84 -35 44 0 56 5 81 29 16 16 29 38 29 49 0 34 -36 66 -91 82
-116 34 -75 108 45 79 33 -7 28 18 -5 30 -34 12 -64 13 -89 4z"/>
<path d="M5683 4619 c-12 -6 -27 -25 -34 -41 -17 -42 11 -78 75 -94 75 -19 97
-52 59 -90 -14 -13 -29 -15 -80 -11 -49 5 -63 3 -63 -7 0 -17 31 -26 93 -26
73 0 115 52 91 115 -8 20 -48 40 -96 49 -47 8 -63 34 -42 64 16 24 62 29 94
12 21 -11 39 5 23 21 -14 14 -96 20 -120 8z"/>
<path d="M6153 4619 c-65 -19 -106 -103 -84 -172 19 -56 62 -90 124 -95 101
-8 161 49 154 146 -7 98 -91 151 -194 121z m126 -44 c49 -43 51 -122 5 -168
-66 -66 -186 -17 -186 76 0 53 11 76 45 98 38 24 107 21 136 -6z"/>
<path d="M4280 4486 c0 -114 2 -136 15 -136 11 0 15 12 15 49 l0 48 52 6 c29
4 64 15 78 25 33 25 39 79 12 113 -17 20 -30 24 -96 27 l-76 4 0 -136z m141
94 c23 -13 26 -62 4 -80 -9 -7 -38 -15 -65 -18 l-50 -5 0 57 0 56 46 0 c25 0
54 -5 65 -10z"/>
<path d="M4830 4485 c0 -113 2 -135 15 -135 12 0 15 13 15 60 l0 60 38 0 c34
-1 40 -5 74 -60 21 -33 44 -60 53 -60 21 0 20 2 -21 66 l-36 56 28 23 c20 16
27 31 27 55 0 52 -30 70 -119 70 l-74 0 0 -135z m144 99 c23 -9 21 -61 -3 -74
-11 -5 -40 -10 -65 -10 l-46 0 0 45 0 45 49 0 c27 0 56 -3 65 -6z"/>
<path d="M5060 4605 c0 -11 11 -15 40 -15 l40 0 0 -120 c0 -100 3 -120 15
-120 13 0 15 20 15 120 l0 120 40 0 c29 0 40 4 40 15 0 12 -17 15 -95 15 -78
0 -95 -3 -95 -15z"/>
<path d="M5852 4608 c3 -7 23 -14 46 -16 l42 -3 0 -120 c0 -99 3 -119 15 -119
13 0 15 20 15 120 l0 120 40 0 c29 0 40 4 40 15 0 12 -18 15 -101 15 -76 0
-100 -3 -97 -12z"/>
<path d="M6392 4488 c3 -110 6 -133 18 -133 11 0 16 14 18 58 l3 57 34 0 c31
0 37 -6 71 -60 25 -41 43 -60 57 -60 21 0 23 -3 -39 90 -22 32 -23 35 -6 43
49 26 57 84 16 116 -22 17 -41 21 -101 21 l-74 0 3 -132z m156 90 c7 -7 12
-20 12 -29 0 -32 -29 -49 -81 -49 l-49 0 0 45 0 45 53 0 c29 0 58 -5 65 -12z"/>
<path d="M6650 4485 l0 -135 85 0 c69 0 85 3 85 15 0 12 -14 15 -70 15 l-70 0
0 50 0 50 60 0 c47 0 60 3 60 15 0 12 -13 15 -60 15 l-60 0 0 40 0 39 67 3
c42 2 68 8 71 16 3 9 -18 12 -82 12 l-86 0 0 -135z"/>
</g>
</svg>
